<svg width="3841" height="581" viewBox="0 0 3841 581" fill="none" xmlns="http://www.w3.org/2000/svg">
<rect width="512" height="512" rx="75" fill="#5CEAFE"/>
<path fill-rule="evenodd" clip-rule="evenodd" d="M343.994 474.95C341.998 477.488 325.927 484.995 315.05 488.473C307.408 490.917 298.508 491.732 295.343 490.28C292.775 489.103 291.138 486.559 291.138 483.75C291.138 478.905 295.244 461.215 298.27 453.024C304.034 437.424 310.97 429.719 320.102 428.776C327.178 428.047 333.605 432.497 338.177 441.293C343.739 451.996 347.037 471.081 343.994 474.95ZM313.133 459.323C310.567 461.953 310.754 464.633 313.622 466.258C315.995 467.602 316.726 467.238 323.561 461.295C326.422 458.806 327.634 457.293 327.634 456.203C327.634 454.27 325.487 452.047 323.62 452.047C322.151 452.047 316.221 456.163 313.133 459.323ZM207.567 482.618C207.867 488.048 207.769 488.848 206.71 489.624C206.052 490.105 205.056 490.477 204.498 490.455C199.256 490.235 173.596 479.769 171.491 476.993C169.895 474.891 170.404 472.561 173.014 470.018C180.875 462.36 194.236 461.739 202.316 468.657C205.844 471.675 207.155 475.162 207.567 482.618ZM240.949 470.431C240.932 474.594 231.785 485.752 226.292 488.314C222.507 490.078 221.71 490.137 219.294 488.826C217.236 487.71 216.998 486.879 216.659 479.624C216.455 475.252 216.034 473.525 214.324 470.052C209.196 459.635 196.378 453.38 184.073 455.289C175.554 456.611 169.25 460.462 161.879 468.844C160.79 470.085 159.408 470.946 158.511 470.946C156.633 470.946 150.852 468.189 147.088 465.667C147.208 465.494 146.74 464.971 145.642 464.042L144.176 462.8L145.417 464.266C145.591 464.472 145.764 464.669 145.927 464.847C145.602 464.604 145.304 464.366 145.039 464.138C143.488 462.8 140.471 460.816 138.333 459.729C133.701 457.372 127.859 451.918 121.383 443.9C111.953 432.224 101.251 415.392 100.533 411.105C100.251 409.422 100.821 406.021 102.447 399.685C104.601 391.296 105.857 384.643 107.371 373.627C108.446 365.798 110.645 358.81 112.789 356.407C114.967 353.965 116.869 354.462 122.55 358.953C126.266 361.89 127.073 362 129.215 359.857C131.681 357.393 131.293 355.454 127.719 352.377C120.764 346.385 114.39 344.913 109.573 348.181C106.569 350.22 105.871 351.045 103.761 355.065C101.66 359.067 100.023 365.25 97.5814 378.397C96.4839 384.309 95.1803 389.551 94.6846 390.046C93.5263 391.205 90.5462 391.207 89.4154 390.052C88.3926 389.007 81.6871 373.808 79.0662 366.594L77.262 361.629L79.8733 351.279C81.3095 345.587 83.5561 335.65 84.8661 329.198C89.3749 306.987 92.2877 295.847 96.6764 284.03C101.791 270.261 104.074 266.959 108.478 266.959C110.572 266.959 111.913 267.619 115.875 270.603C118.536 272.607 120.942 274.464 121.222 274.729C121.503 274.996 121.284 277.973 120.737 281.35C119.263 290.448 118.745 304.237 119.678 309.592C121.708 321.249 127.997 325.785 139.496 323.885C143.433 323.233 144.82 319.948 142.601 316.532C142.164 315.86 140.586 315.585 137.002 315.555C132.229 315.514 131.929 315.42 130.141 313.418C129.113 312.268 127.929 310.068 127.509 308.531C125.818 302.329 128.813 275.244 131.344 273.857C131.949 273.525 134.643 271.104 137.332 268.477C144.775 261.2 148.255 260.87 151.031 267.177C153.838 273.556 154.807 292.456 153.326 311.928C150.947 343.198 148.43 357.674 141.321 380.959C137.899 392.166 135.631 402.422 134.738 410.724C133.032 426.581 137.899 437.635 148.991 443.096C152.605 444.876 153.983 445.199 157.847 445.183C166.19 445.148 169.672 442.142 175.568 429.888C181.504 417.546 185.378 414.037 193.084 414.015C200.157 413.992 206.099 418.157 209.66 425.634C210.689 427.795 212.414 432.735 213.493 436.615C214.572 440.493 215.803 444.085 216.228 444.599C218.084 446.835 223.358 444.692 223.358 441.703C223.358 439.185 219.387 426.815 216.944 421.723C213.904 415.39 209.417 410.616 204.003 407.956C200.576 406.274 199.582 406.101 193.379 406.101C187.016 406.101 186.292 406.235 183.056 408.027C177.457 411.129 173.692 415.487 169.307 423.939C164.971 432.295 163.014 434.784 159.688 436.175C153.114 438.923 144.84 431.805 143.182 421.978C141.91 414.438 144.317 398.805 148.764 385.72C153.326 372.299 158.062 347.452 160.781 322.681C162.3 308.84 162.675 280.193 161.438 272.45C159.488 260.243 154.394 254.577 145.371 254.577C140.93 254.577 138.774 255.807 133.422 261.395C127.839 267.224 125.554 267.552 119.646 263.377C111.021 257.283 108.751 256.742 103.021 259.41C93.6365 263.78 85.6117 283.857 77.3514 323.636C74.8258 335.799 74.1665 337.345 71.5087 337.345C70.9288 337.345 69.9445 336.972 69.321 336.516C68.0825 335.609 64.1311 322.901 61.7772 312.254C60.9848 308.669 59.4795 302.07 58.4321 297.59C54.0756 278.955 51.9397 259.937 52.0013 240.239C52.0572 221.343 52.7648 211.888 54.2461 210.251C55.6937 208.652 57.9435 208.583 59.2749 210.097C61.8313 213.005 65.0386 221.573 67.9198 233.192C68.7808 236.665 70.0997 240.709 70.8509 242.182C72.7242 245.854 76.2848 249.658 79.0978 250.994C81.3454 252.059 81.5134 252.053 83.1457 250.835C84.3398 249.943 85.4359 247.829 86.8139 243.76L88.7792 237.958L88.7637 218.733C88.7531 206.002 88.3391 194.407 87.5383 184.411C86.5538 172.12 86.4591 168.076 87.0293 162.647C87.4149 158.98 87.987 155.723 88.3002 155.409C88.626 155.084 90.0735 155.264 91.6771 155.83C99.7026 158.661 106.5 155.657 108.084 148.577C108.77 145.51 108.691 144.387 107.417 139.194C105.77 132.48 97.0338 110.631 92.1135 100.921C89.513 95.7889 89.7835 93.0305 93.5047 86.7303C102.683 71.1911 118.877 49.7867 123.113 47.5962C125.863 46.1742 129.53 46.4551 132.238 48.2953C134.917 50.1153 135.716 52.092 136.331 58.4108C137.088 66.2002 139.271 79.9718 139.95 81.2404C141.475 84.0898 144.799 84.0128 146.719 81.0835C147.61 79.7233 147.585 78.7956 146.464 71.7616C144.875 61.7938 143.198 45.7422 143.198 40.5008C143.198 33.3157 145.601 31.3704 159.491 27.313C173.914 23.0998 187.723 21.5974 207.386 22.102C223.122 22.5059 227.055 23.1846 232.84 26.4947C238.06 29.4812 243.618 35.8132 244.879 40.2098C246.189 44.7746 242.04 53.9974 231.318 70.3606L227.117 76.7706L225.079 74.2709C216.094 63.2506 202.564 53.6854 190.663 49.9401C183.597 47.7167 175.961 46.9797 169.772 47.9237C159.707 49.4586 155.893 52.2215 158.45 56.1243C159.877 58.3022 161.921 58.6922 165.038 57.3809C171.318 54.7398 180.456 54.9392 189.144 57.9069C198.23 61.0103 207.98 67.6733 215.981 76.2468C222.484 83.2149 222.592 83.5136 220.107 87.7264C216.655 93.5822 213.837 99.577 212.291 104.357C211.479 106.866 210.581 109.175 210.294 109.488C210.008 109.801 208.42 109.143 206.765 108.026C201.322 104.352 194.601 101.639 188.201 100.531C176.611 98.5247 166.359 102.134 160.832 110.168C159.792 111.679 157.423 117.441 155.565 122.974C151.364 135.49 149.152 140.218 146.134 143.134C143.774 145.414 143.772 145.415 137.597 145.415C132.816 145.415 131.281 145.636 130.802 146.392C129.927 147.775 130.018 150.521 130.979 151.735C132.982 154.269 141.482 155.167 145.879 153.31C152.035 150.709 157.335 142.429 162.489 127.361C164.12 122.594 166.195 117.521 167.101 116.088C172.727 107.188 184.529 105.51 197.006 111.835C199.896 113.3 203.613 115.736 205.267 117.248L208.275 119.998L207.701 127.167C207.071 135.039 207.757 146.628 209.283 153.909C210.654 160.451 213.483 162.225 217.067 158.791C218.233 157.672 218.234 157.453 217.074 151.201C215.617 143.349 215.42 124.133 216.734 118.043C219.245 106.399 227.302 89.0377 232.99 83.013C235.17 80.7039 238.421 80.5819 240.568 82.7287C241.902 84.0629 242.127 85.0967 242.52 91.69C242.765 95.7891 243.243 102.662 243.584 106.964C244.747 121.684 245.485 142.451 246.149 179.117C247.225 238.577 248.121 276.833 248.765 290.747C250.518 328.65 250.904 338.632 251.289 355.925C251.52 366.317 251.449 385.816 251.131 399.258C250.721 416.579 250.771 426.683 251.303 433.945C252.031 443.896 252.01 444.32 250.578 448.558C249.766 450.957 248.589 453.236 247.961 453.621C246.188 454.71 244.621 453.289 244.076 450.097C243.291 445.499 240.48 443.692 237.002 445.554C235.978 446.102 235.742 446.937 235.742 450.01C235.742 454.389 237.667 462.492 239.612 466.307C240.35 467.755 240.953 469.61 240.949 470.431ZM188.327 376.256C201.397 392.81 211.296 400.557 223.602 403.864C229.593 405.473 238.191 405.323 241.828 403.541C247.01 401.003 249.142 394.469 247.228 386.999C245.793 381.396 244.169 378.484 239.923 373.898C236.281 369.963 233.356 368.014 218.471 359.593C204.806 351.859 200.994 345.982 204.837 338.55C206.048 336.21 208.229 334.742 210.495 334.742C214.162 334.742 217.794 337.448 227.633 347.511C237.99 358.106 239.078 358.776 241.682 356.171C242.808 355.047 242.99 354.297 242.672 352.098C240.808 339.192 240.691 333.031 242.03 318.414C242.352 314.911 242.223 313.944 241.316 313.038C239.889 311.606 237.565 311.624 235.772 313.076C234.047 314.471 233.246 319.838 233.056 331.261C232.986 335.504 232.846 339.137 232.746 339.334C232.647 339.532 230.333 337.569 227.605 334.97C224.764 332.265 220.945 329.398 218.662 328.257C208.568 323.213 199.035 327.923 195.629 339.64C192.528 350.306 199.313 358.737 219.775 369.647C232.514 376.439 238.8 382.948 240.026 390.614C240.402 392.964 240.237 393.518 238.701 395.054C237.02 396.736 236.723 396.797 231.619 396.506C219.352 395.81 207.348 387.963 197.538 374.228C189.432 362.878 184.816 359.238 178.603 359.291C172.352 359.346 167.436 363.639 162.705 373.175C158.639 381.37 155.567 398.679 157.708 401.333C159.207 403.19 161.622 403.404 163.592 401.854C165.137 400.638 165.358 400.007 165.366 396.767C165.393 386.335 172.362 369.912 177.613 367.904C180.101 366.951 182.393 368.739 188.327 376.256ZM176.382 327.2C175.653 331.045 176.066 332.675 177.959 333.43C181.369 334.791 183.811 332.589 184.823 327.243C186.396 318.934 192.066 310.97 199.015 307.317C201.007 306.268 203.633 305.411 204.851 305.411C209.039 305.411 211.317 300.584 208.382 297.928C206.88 296.568 202.885 296.863 197.942 298.698C187.57 302.547 178.879 314.038 176.382 327.2ZM205.317 248.06C208.739 282.682 212.411 293.922 221.73 298.295C226.543 300.551 230.626 299.447 234.855 294.745C238.548 290.637 239.25 289.262 241.092 282.519C242.448 277.562 242.581 275.747 242.527 262.723C242.515 259.792 242.474 256.664 242.412 253.711C242.473 253.823 242.555 253.844 242.651 253.748C242.87 253.532 242.893 252.97 242.704 252.499C242.567 252.157 242.453 252.108 242.382 252.332C242.278 247.899 242.132 244.015 241.977 242.019C241.515 236.056 241.377 235.598 239.789 234.767C237.942 233.799 234.56 234.5 234.299 235.903C234.222 236.316 234.15 245.893 234.135 257.184C234.112 277.674 234.109 277.723 232.378 282.798C229.819 290.303 226.794 292.612 223.211 289.794C219.863 287.16 216.697 275.688 214.3 257.509C211.302 234.773 210.322 201.173 212.432 193.497C214.47 186.084 217.858 182.671 223.179 182.671C230.731 182.671 233.786 190.798 233.786 210.886C233.786 217.311 233.932 218.226 235.146 219.441C237.422 221.716 241.704 219.937 241.765 216.69C241.847 212.505 240.122 193.818 239.336 190.383C237.342 181.66 232.989 175.713 226.898 173.386C224.277 172.386 223.457 172.338 220.843 173.034C216.752 174.123 215.377 175.12 211.946 179.485C208.975 183.266 206.771 188.245 204.671 195.923C202.759 202.913 203.031 224.93 205.317 248.06ZM179.414 270.02C179.739 273.943 180.188 275.717 181.104 276.7C181.79 277.436 183.076 278.041 183.958 278.041C185.819 278.041 188.17 275.947 188.166 274.293C188.164 273.666 187.28 265.674 186.201 256.534C185.121 247.394 183.95 235.663 183.597 230.465C181.479 199.238 176.502 184.408 165.842 177.568C162.779 175.603 162.006 175.411 156.203 175.178C151.896 175.005 148.417 175.26 145.24 175.983C138.391 177.541 131.469 177.992 128.656 177.064C127.326 176.625 125.626 175.365 124.8 174.207C123.512 172.401 123.294 171.177 123.1 164.642C122.978 160.519 123.347 152.454 123.923 146.719C124.507 140.889 125.154 126.209 125.39 113.423C125.811 90.589 125.809 90.5511 124.404 89.1463C122.633 87.374 120.158 87.3419 118.549 89.0693C117.389 90.3137 117.284 92.0206 116.928 115.301C116.717 129.13 116.2 142.519 115.766 145.415C115.336 148.282 114.956 155.907 114.918 162.359L114.849 174.09L116.804 177.627C120.365 184.069 127.371 186.75 137.305 185.471C139.979 185.127 142.692 184.679 143.334 184.475C146.736 183.395 141.628 188.842 130.838 197.803C121.788 205.317 118.097 208.929 115.298 213.006C108.238 223.292 107.134 231.661 111.922 238.62C118.411 248.049 130.376 245.406 151.243 229.93C156.317 226.166 160.826 222.62 161.262 222.05C163.106 219.644 161.323 215.474 158.451 215.474C157.446 215.474 154.432 217.297 150.504 220.28C142.407 226.429 133.794 232.027 129.796 233.74C121.955 237.101 117.902 235.661 117.29 229.296C116.628 222.409 122.086 215.426 139.616 200.729C148.198 193.535 152.415 189.066 154.133 185.349C154.75 184.014 155.725 182.913 156.298 182.905C160.244 182.842 165.36 186.728 168.16 191.916C169.871 195.086 172.584 205.41 173.753 213.193C174.129 215.702 174.748 222.448 175.128 228.182C175.509 233.917 176.529 244.475 177.396 251.644C178.263 258.813 179.171 267.082 179.414 270.02ZM188.199 169.11C188.668 171.747 189.461 174.314 189.959 174.812C191.254 176.107 193.857 175.933 195.454 174.445C197.44 172.596 196.857 166.104 194.276 161.31C190.33 153.981 185.301 150.612 178.391 150.659C171.188 150.71 166.526 154.219 168.575 158.048C169.787 160.314 171.469 160.833 174.075 159.744C175.35 159.211 177.615 158.775 179.107 158.775C181.432 158.775 182.217 159.172 184.583 161.545C187.033 164.002 187.442 164.856 188.199 169.11ZM284.612 470.543C283.12 477.435 282.281 480.032 281.266 480.885C278.118 483.539 275.083 480.975 270.028 471.386C267.034 465.708 266.945 462.93 269.649 459.527C270.733 458.164 271.806 456.305 272.034 455.395C272.262 454.484 271.812 450.501 271.032 446.542C268.986 436.139 268.051 425.122 269.055 423.237C270.434 420.646 271.698 420.163 277.13 420.133C280.309 420.117 285.14 419.459 289.513 418.449C293.455 417.538 298.663 416.4 301.087 415.923C306.581 414.838 307.559 414.074 307.304 411.07C307.16 409.351 306.661 408.504 305.372 407.783C303.771 406.889 302.879 407.001 293.967 409.215C280.598 412.534 278.898 412.707 275.303 411.117C269.421 408.516 268.898 406.306 269.427 386.321L269.849 370.368L271.533 368.602C276.01 363.91 294.174 360.426 305.685 362.047C311.38 362.851 312.968 362.417 313.966 359.794C314.946 357.218 313.742 355.108 310.885 354.393C303.708 352.595 291.103 353.075 280.79 355.54C275.91 356.707 275.089 356.747 273.108 355.921C269.882 354.57 268.983 351.872 268.983 343.52C268.983 339.721 269.299 336.021 269.688 335.296C270.67 333.461 274.203 332.137 278.118 332.137C283.916 332.137 288.295 328.95 290.6 323.056C291.885 319.771 292.062 317.734 292.47 301.506C292.767 289.694 293.207 282.761 293.759 281.175C294.484 279.091 294.451 278.544 293.512 277.112C292.054 274.886 289.508 274.291 287.851 275.792C285.071 278.307 284.431 282.552 284.311 299.225C284.189 315.966 283.724 318.83 280.578 322.178C277.719 325.223 272.069 323.184 269.723 318.262C267.511 313.622 267.012 308.384 267.096 290.71C267.14 281.322 266.867 271.925 266.478 269.572C265.713 264.925 265.283 256.978 264.751 237.638C264.165 216.22 264.022 213.572 265.108 211.601C265.33 211.199 265.603 210.825 265.933 210.325C266.892 208.876 268.405 207.213 269.293 206.631C273.334 203.984 278.91 204.359 281.333 207.44C283.818 210.598 284.179 213.747 284.24 232.75C284.293 249.239 284.423 251.332 285.588 254.477C288.482 262.281 293.242 265.414 303.667 266.377C307.351 266.717 311.75 267.448 313.441 268.002C317.614 269.371 319.866 269.016 321.1 266.803C321.992 265.198 321.994 264.823 321.108 263.24C319.856 261.004 315.331 259.554 306.673 258.613C297.294 257.595 294.449 255.611 293.132 249.165C292.751 247.306 292.327 238.453 292.189 229.492C292.003 217.348 291.679 212.267 290.92 209.542C288.236 199.908 283.026 196.144 272.82 196.468C267.236 196.646 267.189 196.634 265.485 194.608C262.312 190.838 263.666 184.755 267.859 183.926C269.505 183.602 287.362 181.046 289.816 180.784C290.781 180.681 291.822 179.896 292.423 178.82C293.321 177.21 293.321 176.846 292.423 175.235C291.565 173.696 290.952 173.416 288.079 173.248C286.24 173.141 282.981 173.508 280.837 174.063C275.668 175.402 270.515 175.351 267.7 173.931C266.833 173.494 266.136 173.146 265.57 172.649C263.589 170.909 263.212 167.339 262.768 151.675C262.808 151.715 262.857 151.645 262.906 151.451C263.073 150.828 263.077 149.655 262.923 148.844C262.829 148.354 262.743 148.346 262.688 148.733C262.633 146.723 262.578 144.538 262.517 142.161C262.14 127.465 261.501 112.268 261.1 108.39C260.379 101.458 260.393 101.313 261.855 99.7548C263.782 97.7043 264.99 97.7561 271.627 100.173C278.448 102.656 279.828 103.882 280.388 107.953C280.761 110.659 281.093 111.204 282.812 111.915C287.572 113.887 290.077 108.689 287.346 102.513C285.757 98.9228 282.912 96.7426 276.152 93.934C270.104 91.4212 266.778 89.1251 265.485 86.5683C264.666 84.9509 264.169 81.9713 264.073 78.6824C264.112 78.7217 264.161 78.6524 264.212 78.4588C264.377 77.8356 264.381 76.6625 264.226 75.8519C264.183 75.6277 264.142 75.5045 264.104 75.4739C264.161 74.3385 264.265 73.2061 264.417 72.1166C264.794 69.4661 265.134 61.5598 265.171 54.5471C265.24 42.1798 265.293 41.692 266.949 38.3187C267.888 36.4058 269.928 33.55 271.482 31.9725C277.631 25.7328 283.674 23.021 293.097 22.2706C298.207 21.8636 298.81 21.9464 300.873 23.3408C302.164 24.214 303.329 25.6774 303.632 26.8072C303.92 27.8825 304.345 33.6013 304.577 39.5156C305.036 51.2256 305.459 52.55 308.738 52.55C312.712 52.55 313.355 48.9328 312.025 34.05C311.557 28.8031 311.63 27.2285 312.42 25.5699C313.642 23.0088 317.703 20.1982 318.718 21.2124C319.143 21.637 322.365 21.9193 326.791 21.9193C330.839 21.9193 334.155 22.1542 334.155 22.4413C334.155 23.2025 345.912 25.2412 349.961 25.1828C350.99 25.1678 357.625 28.3055 357.625 28.3055C358.356 28.9869 360.193 29.9144 361.706 30.3665C372.69 33.6474 373.372 35.7424 373.604 66.8393C373.612 67.9032 373.621 68.9105 373.629 69.8647C373.456 69.5441 373.331 69.7429 373.305 70.4133C373.276 71.095 373.427 71.4793 373.641 71.2736C373.767 85.4032 373.94 86.8048 374.932 87.5313C376.455 88.6439 377.906 88.6245 379.486 87.4695C380.663 86.6103 380.763 85.547 380.914 72.3174C381.079 57.6348 381.492 51.213 382.264 51.3617C382.508 51.4087 383.804 50.96 385.142 50.3643C387.146 49.4727 390.671 49.9747 390.671 49.9747C391.017 50.0523 391.351 50.1381 391.669 50.2309L396.189 53.7982C396.189 53.7982 399.583 57.4387 400.227 59.4694C400.465 60.2287 401.241 61.3738 401.95 62.0144C402.656 62.6549 403.235 63.4477 403.235 63.7762C403.235 64.8114 405.149 66.3377 405.88 65.8857C406.265 65.6477 406.516 65.8491 406.432 66.333C406.212 67.6488 407.449 70.2272 409.357 72.4267C410.292 73.5021 411.055 74.7031 411.055 75.0955C411.055 75.4882 411.624 76.3236 412.32 76.9525C414.21 78.6632 415.055 83.6578 415.418 95.2368C415.764 106.37 415.243 110.539 411.414 127.171C408.783 138.605 409.326 147.502 413.045 153.891C414.835 156.964 416.285 158.778 422.065 165.168C434.464 178.876 436.206 185.317 435.572 215.152C435.265 229.559 434.772 236.832 433.222 249.693C431.314 265.554 430.78 275.627 431.764 277.177C432.648 278.564 435.719 278.91 437.395 277.812C438.782 276.906 439.008 276.136 439.397 271.061C439.639 267.912 440.694 257.532 441.745 247.996C443.379 233.162 443.664 227.987 443.708 212.152C443.768 192.184 443.273 186.964 440.566 178.982C438.379 172.531 434.635 166.908 427.772 159.756C417.854 149.425 416.011 143.169 418.841 129.452C421.52 116.469 423.067 113.81 427.943 113.81C432.45 113.81 433.644 115.417 438.603 128.152C449.323 155.68 454.896 179.447 458.038 211.078C459.221 222.974 459.366 227.641 459.071 244.153C458.737 262.825 458.256 268.401 455.674 283.484C453.417 296.657 449.696 313.278 448.099 317.317C447.356 319.198 445.232 320.139 443.193 319.492C442.535 319.282 441.073 317.567 439.945 315.679C435.886 308.895 433.568 307.449 430.599 309.852C428.477 311.571 428.788 313.928 431.717 318.315C435.474 323.94 436.76 328.958 436.768 338C436.772 345.367 435.263 356.868 433.519 362.766C429.497 376.364 410.444 415.797 405.162 421.451C402.826 423.951 399.931 424.041 397.577 421.687C395.915 420.025 395.893 419.884 396.264 413.052C396.756 403.921 398.347 398.926 405.471 384.119C407.495 379.914 410.086 373.755 411.229 370.433C413.19 364.735 413.308 363.863 413.314 354.945C413.318 348.273 412.862 342.43 411.758 335.068C409.577 320.52 409.675 314.39 412.261 303.459C415.145 291.274 415.52 285.325 413.705 280.537C412.811 278.181 411.375 276.002 409.742 274.525C403.984 269.324 399.999 270.841 392.39 281.128C388.455 286.45 386.313 287.757 384.009 286.25C381.93 284.886 381.097 280.719 381.152 271.91C381.195 264.839 381.066 264.029 379.406 260.746C378.022 258.01 376.997 256.907 374.904 255.892C371.008 254.006 368.254 254.237 362.949 256.89C351.967 262.385 349.147 272.177 352.448 293.358C354.175 304.447 354.794 323.481 353.727 332.681C352.322 344.782 348.798 357.322 344.283 366.289C340.216 374.366 336.019 375.922 333.053 370.452C332.047 368.596 331.839 365.882 331.509 350.383C331.161 333.937 331.011 332.157 329.685 328.775C327.801 323.968 325.829 321.101 323.174 319.312C320.255 317.343 315.842 316.746 312.783 317.905C310.752 318.675 310.333 319.166 310.158 320.976C309.856 324.082 311.486 325.618 315.08 325.618C317.377 325.618 318.337 325.993 319.813 327.469C322.909 330.565 323.347 333.469 323.428 351.361C323.506 368.967 323.789 370.826 327.296 376.812C329.538 380.639 332.277 382.311 336.298 382.315C344.46 382.321 351.134 374.36 356.529 358.183C362.698 339.679 364.26 316.921 360.886 294.661C360.179 290.002 359.596 283.256 359.592 279.672C359.582 271.297 361.175 267.336 365.598 264.743C369.39 262.517 371.781 262.511 372.621 264.721C372.971 265.642 373.258 269.878 373.258 274.138C373.258 278.399 373.563 283.315 373.938 285.063C374.779 288.983 377.8 292.786 381.358 294.403C387.372 297.134 391.905 295.254 397.143 287.857C399.031 285.191 401.29 282.297 402.164 281.423L403.752 279.833L404.927 281.625C406.392 283.867 406.377 290.073 404.889 296.612C400.919 314.05 400.754 317.205 403.003 332.783C404.96 346.348 405.143 348.188 405.166 354.196C405.198 363.309 404.111 367.128 397.524 381.01C389.561 397.795 388.227 402.217 387.767 413.333C387.388 422.485 388.152 426.033 391.801 432.086C393.07 434.19 394.109 436.552 394.109 437.336C394.109 439.982 381.14 454.501 373.967 459.883C365.13 466.513 359.313 468.482 355.808 466.026C353.692 464.543 353.195 463.291 351.741 455.757C351.018 452.008 349.884 447.366 349.222 445.44C340.972 421.461 320.899 413.009 304.95 426.801C296.25 434.324 289.146 449.601 284.612 470.543ZM341.666 403.567C340.354 404.879 340.393 407.65 341.748 409.145C344.124 411.773 353.876 409.691 360.776 405.084C371.773 397.74 378.612 384.62 382.339 363.711C384.103 353.825 386.94 331.524 386.94 327.553C386.94 321.249 384.241 317.862 380.311 319.233C378.681 319.801 376.792 323.068 377.614 323.893C378.38 324.657 377.692 338.137 376.451 346.75C373.168 369.515 370.537 379.741 366.034 387.207C360.405 396.545 354.719 400.606 345.088 402.174C343.756 402.39 342.216 403.017 341.666 403.567ZM332.167 251.644C327.984 270.244 326.876 302.698 330.306 306.127C331.727 307.551 334.065 307.738 335.63 306.553C336.573 305.84 336.74 303.486 336.978 287.49C337.202 272.369 337.497 267.851 338.697 261.112C340.817 249.2 342.823 242.825 347.253 233.938C350.342 227.738 351.737 225.636 353.631 224.325C358.026 221.279 359.403 221.983 370.321 232.86C378.692 241.2 382.816 243.626 389.319 244.041C394.019 244.341 397.789 242.893 400.98 239.561C402.663 237.805 402.913 237.017 403.125 232.826C403.318 228.968 403.084 227.419 401.864 224.548C397.964 215.359 388.474 203.083 370.647 184.173C369.751 183.223 366.853 179.902 364.207 176.793C355.256 166.278 348.049 160.733 343.334 160.733C340.357 160.733 337.145 163.01 335.275 166.445C333.393 169.902 332.554 174.3 331.575 185.867C331.208 190.192 330.565 194.737 330.145 195.968C328.049 202.104 321.654 208.96 318.027 208.96C315.936 208.96 313.699 206.339 310.406 200.027C307.899 195.22 307.628 194.937 305.374 194.749C303.5 194.593 302.771 194.867 301.952 196.035C300.498 198.111 300.577 198.48 303.638 203.852C308.783 212.885 313.73 217.456 318.32 217.418C322.689 217.383 329.695 212.281 333.485 206.373C336.601 201.518 338.444 195.241 339.328 186.476C339.64 183.376 339.911 180.829 340.157 178.738C340.218 178.872 340.306 178.903 340.407 178.801C340.627 178.585 340.65 178.022 340.462 177.552C340.416 177.436 340.371 177.354 340.33 177.304C341.02 171.809 341.536 170.006 342.31 169.442C344.796 167.623 347.01 169.587 365.23 189.775C389.571 216.747 397.679 229.49 393.834 234.74C392.604 236.418 386.901 236.406 383.683 234.718C382.429 234.06 377.443 229.51 372.604 224.608C363.631 215.52 361.444 214.075 356.886 214.22C350.931 214.41 342.558 222.184 338.994 230.83C338.414 232.241 337.534 234.276 337.041 235.351C335.658 238.363 333.621 245.17 332.167 251.644ZM413.972 224.573C414.233 224.997 415.076 225.602 415.846 225.92C417.493 226.602 420.285 226.119 420.976 225.036C421.68 223.929 421.609 222.381 420.208 208.305C419.514 201.316 418.76 192.224 418.534 188.102C417.978 177.987 417.652 177.261 413.09 175.994C402.567 173.072 400.551 171.283 398.319 162.881C395.612 152.687 394.117 137.75 394.111 120.866C394.109 116.683 393.921 112.775 393.693 112.181C392.638 109.431 387.455 109.848 386.677 112.746C386.138 114.756 386.223 126.441 386.838 138.172C386.816 138.046 386.783 137.919 386.734 137.797C386.524 137.278 386.37 137.433 386.339 138.192C386.311 138.878 386.463 139.263 386.679 139.047C386.783 138.944 386.844 138.764 386.856 138.552C386.889 139.144 386.922 139.735 386.956 140.325C387.893 156.492 390.551 168.05 394.667 173.839C396.954 177.056 401.927 180.614 406.023 181.962C407.895 182.577 409.64 183.404 409.903 183.799C410.165 184.195 410.396 186.131 410.412 188.102C410.457 193.349 413.416 223.675 413.972 224.573ZM296.504 160.333C300.52 166.292 312.361 177.61 316.447 179.396C318.263 180.19 320.999 179.552 321.909 178.123C323.1 176.246 322.312 174.526 318.999 171.773C311.842 165.829 303.121 156.52 301.359 152.944C298.042 146.214 299.266 138.68 305.105 129.884C308.123 125.338 319.964 112.795 322.457 111.507C325.73 109.815 329.163 109.647 332.271 111.027C336.524 112.917 338.739 115.069 344.945 123.329C348.039 127.447 351.069 131.316 351.682 131.925C353.625 133.859 359.285 141.373 361.596 145.089C364.49 149.741 366.38 153.714 367.72 157.967C368.914 161.754 370.087 162.736 372.792 162.219C376.413 161.527 376.576 158.313 373.392 150.357C372.447 147.997 370.857 144.841 369.857 143.342C368.859 141.844 368.04 140.35 368.04 140.024C368.04 139.697 364.301 134.761 359.731 129.056C341.44 106.219 337.615 103.09 327.96 103.067C323.833 103.056 322.119 103.363 319.738 104.536C312.424 108.139 299.852 121.926 294.822 131.858C289.594 142.185 290.105 150.839 296.504 160.333ZM320.441 143.741C320.86 144.523 321.842 145.42 322.626 145.736C324.954 146.674 325.33 146.524 328.503 143.395L331.544 140.399L335.401 140.847C339.049 141.27 339.318 141.204 340.35 139.628C342.855 135.803 338.222 131.492 332.524 132.346C326.618 133.232 318.775 140.628 320.441 143.741ZM278.311 66.333C280.507 71.5428 288.836 78.9887 293.582 79.9832C300.749 81.4848 312.292 77.5979 319.424 71.282C320.133 70.6547 321.194 70.1417 321.194 70.1417L322.538 69.3111C322.525 69.3193 330.393 64.2762 330.393 64.2762C330.393 64.2762 332.674 62.9276 334.116 62.0186C335.556 61.1095 337.56 60.3557 337.56 60.3557C337.56 60.3557 339.782 59.2578 343.45 59.1745C347.118 59.0914 353.421 60.9262 353.421 60.9262C354.498 61.4032 356.475 61.9445 357.494 61.9445C358.512 61.9445 359.708 60.9016 360.136 59.9633C360.847 58.4039 360.714 58.0652 358.611 56.0216C357.344 54.7919 355.238 53.5223 355.238 53.5223C354.537 52.8217 349.762 51.561 349.762 51.561C347.34 51.0291 339.976 52.4777 339.976 52.4777L321.768 61.6775C321.768 61.7023 321.772 61.6533 321.768 61.6775C321.772 61.6508 321.768 61.6775 321.768 61.6694C321.768 61.6775 321.768 61.6775 321.768 61.6775C321.768 61.6775 317.883 63.7375 315.215 65.4687C304.207 72.6096 298.873 74.0856 293.488 71.4791C291.853 70.6871 289.555 68.8158 288.382 67.3205C283.834 61.5217 283.15 60.9449 281.079 61.1494C278.458 61.4079 277.215 63.7349 278.311 66.333ZM80.3517 205.91C81.1684 218.433 81.2655 223.146 80.7297 224.321C80.2087 225.465 79.4874 225.901 78.1202 225.901C75.8899 225.901 75.2038 225.168 74.1626 221.665C73.7364 220.232 69.8123 211.756 65.4424 202.83C59.9673 191.647 57.7874 187.323 57.5587 182.898C57.4026 179.878 58.1556 176.811 59.3903 171.483C64.384 149.937 70.0779 133.367 79.9344 111.697C82.8653 105.253 85.7186 106.22 89.3808 114.897C90.7162 118.061 92.1889 121.529 92.6539 122.605C93.8009 125.257 96.5629 132.898 97.9429 137.237C98.5643 139.19 99.1016 142.416 99.1401 144.405C99.2003 147.651 99.0614 148.043 97.7845 148.224C97.0018 148.336 94.498 147.851 92.2203 147.148C87.1257 145.574 85.1025 145.91 82.6174 148.74C80.2605 151.425 78.8208 156.051 78.2996 162.615C77.9149 167.462 78.1049 171.464 80.3517 205.91ZM265.529 54.9893C265.373 54.1828 265.246 54.8426 265.246 56.4556C265.246 58.0686 265.373 58.7285 265.529 57.922C265.684 57.1155 265.684 55.7958 265.529 54.9893ZM89.5731 222.163C89.4238 221.173 89.2973 221.828 89.292 223.621C89.2875 225.415 89.4105 226.223 89.5653 225.423C89.7185 224.62 89.7232 223.154 89.5731 222.163ZM336.809 300.47C336.839 299.71 336.994 299.555 337.204 300.075C337.391 300.545 337.369 301.107 337.149 301.323C336.933 301.541 336.78 301.156 336.809 300.47ZM328.286 22.4636V22.4413C328.286 22.4636 328.286 22.4636 328.286 22.4636C328.286 22.4858 328.286 22.4413 328.286 22.4636Z" fill="#2041E1"/>
<path d="M713.446 450V381.463H743.635C778.991 381.463 805.463 371.4 823.051 351.274C840.82 330.967 849.704 301.322 849.704 262.339C849.704 219.549 840.82 187.184 823.051 165.245C805.463 143.306 778.991 132.336 743.635 132.336H714.534L708.006 63.7988H743.635C864.572 63.7988 925.041 129.979 925.041 262.339C925.041 387.446 864.572 450 743.635 450H713.446ZM645.453 450V63.7988H717.253V450H645.453ZM1059.67 455.439C1032.29 455.439 1011.07 446.464 996.025 428.514C980.976 410.383 973.452 384.908 973.452 352.09V161.709H1047.16V333.868C1047.16 350.367 1050.87 363.15 1058.31 372.216C1065.92 381.1 1076.35 385.542 1089.58 385.542C1106.81 385.542 1119.77 378.924 1128.48 365.688C1137.36 352.271 1141.8 329.879 1141.8 298.511L1156.49 394.518H1134.19C1129.65 414.1 1120.86 429.149 1107.81 439.665C1094.75 450.181 1078.71 455.439 1059.67 455.439ZM1146.7 452.72L1141.8 383.639V333.052H1215.51V384.183L1255.22 390.166V450L1146.7 452.72ZM1141.8 368.408V161.709H1215.51V352.09L1141.8 368.408ZM1492.92 450V254.724C1492.92 234.779 1487.12 224.807 1475.51 224.807C1462.46 224.807 1455.93 235.595 1455.93 257.171L1436.35 197.609H1460.83C1462.46 184.736 1467.44 174.673 1475.79 167.42C1484.31 159.986 1495.46 156.27 1509.24 156.27C1528.64 156.27 1542.78 161.618 1551.67 172.316C1560.73 183.014 1565.26 200.329 1565.26 224.263V450H1492.92ZM1290.57 450V161.709H1356.66L1363.19 222.631V450H1290.57ZM1401.26 450V249.284C1401.26 232.966 1395.46 224.807 1383.86 224.807C1370.08 224.807 1363.19 235.595 1363.19 257.171L1346.33 197.609H1367C1370.99 170.049 1385.58 156.27 1410.78 156.27C1424.74 156.27 1435.71 161.437 1443.69 171.772C1451.85 182.107 1455.93 197.791 1455.93 218.823V450H1401.26ZM1819.29 450V254.724C1819.29 234.779 1813.48 224.807 1801.88 224.807C1788.83 224.807 1782.3 235.595 1782.3 257.171L1762.72 197.609H1787.19C1788.83 184.736 1793.81 174.673 1802.15 167.42C1810.67 159.986 1821.83 156.27 1835.6 156.27C1855.01 156.27 1869.15 161.618 1878.03 172.316C1887.1 183.014 1891.63 200.329 1891.63 224.263V450H1819.29ZM1616.94 450V161.709H1683.03L1689.56 222.631V450H1616.94ZM1727.63 450V249.284C1727.63 232.966 1721.83 224.807 1710.23 224.807C1696.45 224.807 1689.56 235.595 1689.56 257.171L1672.69 197.609H1693.36C1697.35 170.049 1711.95 156.27 1737.15 156.27C1751.11 156.27 1762.08 161.437 1770.06 171.772C1778.22 182.107 1782.3 197.791 1782.3 218.823V450H1727.63ZM1933.24 580.547L1930.52 516.633L1980.29 511.194C1997.34 509.199 2011.93 504.667 2024.08 497.595C2036.23 490.524 2046.57 479.917 2055.09 465.774C2063.79 451.813 2071.31 433.5 2077.66 410.836L2147.29 161.709H2225.34L2144.29 424.435C2133.42 459.066 2120.9 486.898 2106.76 507.93C2092.62 529.144 2075.85 544.918 2056.45 555.253C2037.05 565.77 2013.84 572.388 1986.82 575.107L1933.24 580.547ZM2024.63 450L1927.8 161.709H2005.86L2077.39 387.446H2090.44V450H2024.63ZM2773.64 455.439C2650.53 455.439 2588.97 389.078 2588.97 256.355C2588.97 193.439 2604.47 144.756 2635.48 110.306C2666.48 75.675 2710.36 58.3594 2767.11 58.3594C2792.68 58.3594 2815.34 62.5296 2835.1 70.8701C2854.87 79.0293 2869.83 90.7241 2879.98 105.955L2839.73 158.717C2831.57 148.564 2821.14 140.767 2808.45 135.328C2795.94 129.707 2782.34 126.896 2767.66 126.896C2736.47 126.896 2711.45 137.957 2692.59 160.077C2673.92 182.016 2664.58 213.202 2664.58 253.636C2664.58 342.48 2704.01 386.902 2782.89 386.902C2809.18 386.902 2835.1 381.463 2860.67 370.584L2873.18 436.945C2841.63 449.275 2808.45 455.439 2773.64 455.439ZM3059.75 455.439C3018.23 455.439 2986.05 442.385 2963.2 416.275C2940.36 390.166 2928.94 353.359 2928.94 305.854C2928.94 258.169 2940.36 221.362 2963.2 195.434C2986.05 169.324 3018.23 156.27 3059.75 156.27C3101.28 156.27 3133.46 169.324 3156.3 195.434C3179.15 221.362 3190.57 258.169 3190.57 305.854C3190.57 353.359 3179.15 390.166 3156.3 416.275C3133.46 442.385 3101.28 455.439 3059.75 455.439ZM3059.75 385.542C3077.52 385.542 3091.21 378.653 3100.82 364.873C3110.43 350.911 3115.24 331.239 3115.24 305.854C3115.24 280.289 3110.43 260.616 3100.82 246.836C3091.21 233.056 3077.52 226.167 3059.75 226.167C3042.17 226.167 3028.48 233.056 3018.69 246.836C3009.08 260.616 3004.27 280.289 3004.27 305.854C3004.27 331.239 3009.08 350.911 3018.69 364.873C3028.48 378.653 3042.17 385.542 3059.75 385.542ZM3357.56 455.439C3321.84 455.439 3294.01 442.566 3274.07 416.819C3254.31 391.073 3244.42 354.175 3244.42 306.126C3244.42 258.441 3254.31 221.543 3274.07 195.434C3294.01 169.324 3322.03 156.27 3358.11 156.27C3379.14 156.27 3395.1 161.074 3405.98 170.684C3417.04 180.112 3424.2 194.527 3427.46 213.928H3451.39L3434.53 306.126C3434.53 278.204 3429.82 257.806 3420.39 244.933C3411.14 232.059 3397.09 225.623 3378.23 225.623C3359.56 225.623 3345.14 232.694 3334.99 246.836C3324.84 260.798 3319.76 280.561 3319.76 306.126C3319.76 332.598 3324.66 352.543 3334.45 365.96C3344.42 379.378 3359.01 386.086 3378.23 386.086C3399.27 386.086 3413.86 379.74 3422.02 367.048C3430.36 354.356 3434.53 334.049 3434.53 306.126L3454.11 397.781H3428.55C3425.65 417.001 3418.12 431.415 3405.98 441.025C3393.83 450.635 3377.69 455.439 3357.56 455.439ZM3445.14 452.72L3434.53 395.605V42.041H3508.24V450L3445.14 452.72ZM3735.33 455.439C3685.47 455.439 3646.94 442.566 3619.75 416.819C3592.55 390.891 3578.95 353.722 3578.95 305.311C3578.95 258.169 3590.46 221.543 3613.49 195.434C3636.7 169.324 3669.34 156.27 3711.4 156.27C3752.56 156.27 3784.38 168.327 3806.86 192.442C3829.35 216.557 3840.59 251.641 3840.59 297.695C3840.59 310.75 3840.04 323.17 3838.96 334.956H3627.36V283.825H3768.24C3768.24 264.424 3763.26 249.556 3753.28 239.221C3743.49 228.886 3729.71 223.719 3711.94 223.719C3692.72 223.719 3677.77 230.609 3667.07 244.389C3656.55 257.987 3651.29 277.388 3651.29 302.591C3651.29 329.788 3659.09 350.458 3674.68 364.601C3690.46 378.743 3712.85 385.814 3741.86 385.814C3754.92 385.814 3767.79 385.18 3780.48 383.911C3793.17 382.46 3806.14 380.556 3819.37 378.199L3826.44 447.824C3807.95 451.088 3791.09 453.173 3775.86 454.08C3760.63 454.986 3747.12 455.439 3735.33 455.439Z" fill="white"/>
</svg>
